<svg width="795" height="290" viewBox="0 0 795 290" fill="none" xmlns="http://www.w3.org/2000/svg">
<g filter="url(#filter0_f_3_69)">
<path fill-rule="evenodd" clip-rule="evenodd" d="M-133.407 281.045C-139.402 248.27 -137.939 213.197 -108.849 171.015C-80.5594 129.992 -38.3193 84.9865 27.5174 47.6897C89.8656 12.3691 160.847 3.60442 230.018 -20.9549C307.509 -48.4686 394.344 -104.861 456.51 -104.625C518.373 -104.391 474.623 -40.9863 507.688 -19.9039C553.075 9.03413 718.698 -19.3859 682.288 39.3298C646.063 97.7471 469.16 120.432 384.581 178.621C289.893 243.767 305.39 326.586 190.22 377.871C83.6137 425.342 -6.34804 400.389 -70.4028 381.225C-124.396 365.07 -126.065 321.188 -133.407 281.045Z" fill="#8280EC"/>
<path fill-rule="evenodd" clip-rule="evenodd" d="M563.36 247.268C548.334 225.737 594.538 188.646 602.312 159.624C612.275 122.432 561.335 88.377 615.003 54.4785C670.418 19.4767 730.228 55.2889 795.641 37.5113C856.865 20.8721 915.251 -44.6228 966.628 -41.0843C1017.06 -37.6109 966.155 23.4616 982.743 50.3976C998.153 75.4214 1062.29 76.4435 1058.5 108.1C1054.51 141.32 1016.58 185.126 963.163 213.693C911.207 241.478 854.151 237.291 798.226 247.288C755.863 254.86 714.138 265.046 675.882 265.043C632.017 265.039 578.403 268.824 563.36 247.268Z" fill="#796214"/>
<path fill-rule="evenodd" clip-rule="evenodd" d="M118.169 518.618C111.067 485.483 174.581 440.849 189.91 402.035C207.175 358.318 167.068 323.744 212.617 279.464C260.094 233.31 345.281 198.799 421.301 177.09C496.82 155.525 583.355 140.258 627.571 160.968C670.557 181.101 614.286 243.508 633.744 276.593C651.441 306.682 748.311 300.075 732.891 340.038C717.769 379.227 628.843 409.566 569.868 442.133C522.795 468.127 475.766 489.599 424.633 510.263C358.434 537.016 289.157 578.583 228.107 580.248C165.494 581.955 125.78 554.129 118.169 518.618Z" fill="#85BA88"/>
<path fill-rule="evenodd" clip-rule="evenodd" d="M253.263 102.944C227.211 57.1943 131.157 31.5709 176.382 -30.6679C222.838 -94.5992 375.498 -116.022 455.207 -174.968C543.573 -240.315 541.565 -328.461 649.484 -380.531C759.196 -433.466 899.606 -451.533 979.038 -427.711C1056.57 -404.459 1024.04 -323.01 1036.15 -264.565C1045.27 -220.526 1075.77 -181.529 1041 -128.644C1007.73 -78.051 921.159 -37.8486 856.664 8.3826C789.424 56.5818 737.017 110.001 655.624 147.601C551.295 195.795 424.215 258.882 335.669 249.054C247.06 239.22 281.639 152.774 253.263 102.944Z" fill="#3D5160"/>
</g>
<defs>
<filter id="filter0_f_3_69" x="-301.249" y="-603.039" width="1524.91" height="1348.36" filterUnits="userSpaceOnUse" color-interpolation-filters="sRGB">
<feFlood flood-opacity="0" result="BackgroundImageFix"/>
<feBlend mode="normal" in="SourceGraphic" in2="BackgroundImageFix" result="shape"/>
<feGaussianBlur stdDeviation="82.5" result="effect1_foregroundBlur_3_69"/>
</filter>
</defs>
</svg>
