<svg width="375" height="94" viewBox="0 0 375 94" fill="none" xmlns="http://www.w3.org/2000/svg">
<g filter="url(#filter0_f_3_34)">
<path fill-rule="evenodd" clip-rule="evenodd" d="M413.444 95.622C395.773 116.892 360.25 91.664 334.432 100.568C309.405 109.2 295.782 149.78 270.2 145.025C245.379 140.412 247.894 101.377 232.337 81.5932C215.968 60.7768 173.653 53.9791 177.454 27.0831C181.478 -1.39533 224.337 -2.90597 246.84 -21.0349C260.531 -32.0641 266.389 -52.3822 282.904 -57.8674C299.278 -63.3058 315.859 -54.8489 331.815 -49.2579C346.928 -43.9625 361.195 -37.6057 372.626 -26.4286C385.844 -13.505 396.008 1.57306 401.939 19.3072C410.252 44.1644 430.586 74.9868 413.444 95.622Z" fill="#85BA88"/>
<path fill-rule="evenodd" clip-rule="evenodd" d="M149.998 226C133.336 212.365 131.611 185.432 121.775 164.579C113.718 147.5 102.666 133.827 97.6381 114.997C90.5089 88.2979 73.949 59.1984 86.6924 33.194C99.2642 7.53952 130.011 2.65595 154.468 -0.970984C174.684 -3.96903 192.448 6.36465 210.551 14.8262C226.111 22.0994 237.958 34.1153 251.918 44.5786C274.501 61.5055 310.963 64.0475 317.486 94.9789C323.782 124.83 297.209 153.748 280.553 180.357C264.187 206.502 248.497 237.78 222.382 246.91C196.772 255.863 170.404 242.699 149.998 226Z" fill="#8685BA"/>
<path fill-rule="evenodd" clip-rule="evenodd" d="M87.2544 -32.6449C109.341 -31.2777 139.714 -29.5372 147.137 -8.49924C154.908 13.5236 124.748 31.5453 117.873 54.1316C112.7 71.1257 123.074 91.5539 112.37 105.721C101.464 120.154 81.625 125.566 63.8493 125.629C47.7159 125.687 36.2189 111.497 21.1007 106.049C3.43807 99.685 -24.0149 108.427 -31.8121 91.1606C-39.7822 73.5109 -14.6025 57.1701 -9.52545 38.2282C-5.45394 23.0381 -15.9639 4.07649 -5.3635 -7.51487C5.22797 -19.0965 24.3328 -11.1097 39.3112 -15.1738C56.1066 -19.7309 69.9955 -33.7132 87.2544 -32.6449Z" fill="#26465F"/>
</g>
<defs>
<filter id="filter0_f_3_34" x="-190.359" y="-216.619" width="767.474" height="623.425" filterUnits="userSpaceOnUse" color-interpolation-filters="sRGB">
<feFlood flood-opacity="0" result="BackgroundImageFix"/>
<feBlend mode="normal" in="SourceGraphic" in2="BackgroundImageFix" result="shape"/>
<feGaussianBlur stdDeviation="78.5" result="effect1_foregroundBlur_3_34"/>
</filter>
</defs>
</svg>
