<svg width="375" height="202" viewBox="0 0 375 202" fill="none" xmlns="http://www.w3.org/2000/svg">
<g filter="url(#filter0_f_3_59)">
<path fill-rule="evenodd" clip-rule="evenodd" d="M550.561 172.638C541.715 189.476 529.416 204.552 504.793 212.471C480.846 220.173 450.544 224.436 414.342 216.448C380.058 208.884 351.582 186.265 318.456 171.358C281.345 154.657 231.18 147.329 208.897 123.995C186.721 100.775 223.743 88.881 218.925 67.1352C212.312 37.2867 143.194 -11.9413 176.001 -24.4895C208.64 -36.9739 279.891 19.0235 329.848 24.7082C385.777 31.0724 408.003 -11.6076 466.646 8.58331C520.93 27.273 544.915 72.0027 561.524 104.474C575.524 131.844 561.394 152.014 550.561 172.638Z" fill="#8280EC"/>
<path fill-rule="evenodd" clip-rule="evenodd" d="M288.58 -72.6705C286.758 -57.4658 257.687 -58.2091 245.149 -48.1871C229.081 -35.3436 235.974 -1.14081 205.289 -6.09527C173.606 -11.211 164.113 -49.511 134.615 -66.0347C107.006 -81.5002 64.0186 -74.1437 46.7247 -94.9176C29.7493 -115.309 68.561 -123.491 71.6357 -141.687C74.4922 -158.591 51.7623 -183.013 63.7538 -195.695C76.3379 -209.004 104.687 -214.342 133.493 -207.106C161.509 -200.068 180.628 -176.884 204.101 -160.439C221.881 -147.983 240.31 -136.929 254.07 -122.633C269.848 -106.241 290.405 -87.8934 288.58 -72.6705Z" fill="#796214"/>
<path fill-rule="evenodd" clip-rule="evenodd" d="M539.809 -27.186C531.241 -9.77303 493.412 -13.6249 474.869 -2.06392C453.984 10.9574 456.806 41.3433 425.558 44.0466C392.986 46.8645 350.759 30.4057 316.125 11.6695C281.721 -6.94298 245.468 -32.4774 236.514 -58.2241C227.809 -83.2538 268.999 -90.0249 273.105 -112.032C276.839 -132.047 239.775 -165.301 258.736 -177.339C277.331 -189.144 319.503 -169.43 351.65 -161.899C377.308 -155.888 401.433 -147.879 426.763 -137.977C459.556 -125.158 498.43 -117.787 520.95 -95.7161C544.046 -73.0807 548.991 -45.8469 539.809 -27.186Z" fill="#85BA88"/>
<path fill-rule="evenodd" clip-rule="evenodd" d="M351.683 107.485C345.698 137.597 371.65 184.902 334.49 195.725C296.319 206.843 234.213 159.342 185.753 155.814C132.031 151.902 103.165 191.914 46.8663 174.782C-10.3682 157.366 -66.9416 112.948 -87.5183 72.6564C-107.602 33.3305 -68.5613 9.20598 -53.2986 -21.3515C-41.7984 -44.3764 -39.6809 -73.1446 -9.41954 -83.7062C19.5306 -93.8103 64.1669 -79.369 102.886 -75.8622C143.252 -72.2061 180.035 -76.418 221.936 -62.752C275.642 -45.2353 342.532 -25.8509 371.085 11.6126C399.659 49.1026 358.203 74.6863 351.683 107.485Z" fill="#3D5160"/>
</g>
<defs>
<filter id="filter0_f_3_59" x="-258.138" y="-375.348" width="990.515" height="761.079" filterUnits="userSpaceOnUse" color-interpolation-filters="sRGB">
<feFlood flood-opacity="0" result="BackgroundImageFix"/>
<feBlend mode="normal" in="SourceGraphic" in2="BackgroundImageFix" result="shape"/>
<feGaussianBlur stdDeviation="82.5" result="effect1_foregroundBlur_3_59"/>
</filter>
</defs>
</svg>
