<svg width="400" height="312" viewBox="0 0 400 312" fill="none" xmlns="http://www.w3.org/2000/svg">
<g filter="url(#filter0_f_3_16)">
<path fill-rule="evenodd" clip-rule="evenodd" d="M209.038 -58.8865C234.208 -63.0193 259.173 -64.4088 282.361 -55.5568C304.912 -46.9481 326.849 -33.1898 337.317 -9.91666C347.23 12.1233 335.804 38.9658 336.238 64.2319C336.724 92.5374 355.73 122.832 340.009 146.782C324.365 170.615 289.517 157.299 266.019 171.205C233.766 190.291 212.861 252.48 179.563 241.73C146.434 231.035 174.304 164.183 153.435 134.857C130.072 102.025 66.3814 112.603 58.1523 71.1137C50.535 32.7092 91.0609 -3.31888 120.925 -29.0495C146.099 -50.7383 178.209 -53.8244 209.038 -58.8865Z" fill="#8280EC"/>
<path fill-rule="evenodd" clip-rule="evenodd" d="M59.1353 207.515C78.4439 200.531 93.6741 216.256 112.69 217.634C137.058 219.399 174.396 197.889 185.454 216.666C196.871 236.054 156.045 261.077 152.521 285.274C149.223 307.921 181.919 326.756 166.512 346.735C151.388 366.346 120.013 350.147 96.4103 358.033C74.4827 365.36 57.6995 390.114 35.7862 390.415C12.79 390.73 -9.35839 378.564 -16.6276 359.586C-23.6976 341.128 -6.40136 318.926 0.368874 297.949C5.49732 282.059 8.57801 266.561 18.1502 251.83C29.1255 234.941 39.8036 214.508 59.1353 207.515Z" fill="#796214"/>
<path fill-rule="evenodd" clip-rule="evenodd" d="M-25.475 51.2078C0.232697 46.6283 16.5798 68.5985 40.7779 72.3396C68.0328 76.5532 103.035 59.1858 123.621 74.2585C145.078 89.9693 148.693 120.848 145.355 148.91C142.039 176.787 131.419 209.256 105.4 227.435C80.1069 245.107 49.1113 226.915 20.3496 236.249C-5.80834 244.738 -25.2692 281.669 -50.2735 277.957C-74.7944 274.316 -74.4606 241.765 -83.2286 220.871C-90.227 204.193 -93.9697 187.281 -96.1028 168.743C-98.8645 144.743 -111.556 120.383 -97.4863 96.9693C-83.0566 72.9561 -53.0253 56.1154 -25.475 51.2078Z" fill="#85BA88"/>
<path fill-rule="evenodd" clip-rule="evenodd" d="M240.941 80.0808C280.499 67.5027 323.033 29.0912 356.67 43.0396C391.221 57.3673 368.505 114.955 391.138 142.364C416.228 172.75 480.392 167.069 491.002 205.723C501.788 245.019 479.713 298.076 442.638 329.987C406.451 361.133 355.764 353.143 310.524 361.06C276.436 367.025 240.641 380.941 211.145 370.496C182.928 360.503 175.549 329.408 158.293 307.149C140.303 283.942 114.832 266.738 108.037 237.492C99.3284 200.004 85.5548 154.586 114.802 119.945C144.071 85.2797 197.854 93.7809 240.941 80.0808Z" fill="#3D5160"/>
</g>
<defs>
<filter id="filter0_f_3_16" x="-268.999" y="-227.119" width="927.741" height="782.539" filterUnits="userSpaceOnUse" color-interpolation-filters="sRGB">
<feFlood flood-opacity="0" result="BackgroundImageFix"/>
<feBlend mode="normal" in="SourceGraphic" in2="BackgroundImageFix" result="shape"/>
<feGaussianBlur stdDeviation="82.5" result="effect1_foregroundBlur_3_16"/>
</filter>
</defs>
</svg>
